<?xml version="1.0" encoding="UTF-8"?>
<svg id="Layer_1" xmlns="http://www.w3.org/2000/svg" baseProfile="tiny-ps" version="1.2" viewBox="0 0 540 540">
  <!-- Generator: Adobe Illustrator 29.6.0, SVG Export Plug-In . SVG Version: 2.1.1 Build 207)  -->
  <title>Calendly</title>
  <g id="Brand_mark">
    <path d="M450.8,339.8l-27.2,47c-24.9,43.2-71,69.8-120.8,69.8h-54.3c-49.8,0-95.9-26.6-120.8-69.8l-27.2-47c-24.9-43.2-24.9-96.3,0-139.5l27.2-47.1c24.9-43.2,71-69.8,120.8-69.8h54.3c49.8,0,95.9,26.6,120.8,69.8l27.2,47.1c3.3,5.6,6.1,11.5,8.5,17.6,0,.1,0,.2.1.4,16-2.5,31.2-8.7,44.3-18.2,0-.1,0-.3-.1-.4-7.4-24.1-18.7-47-33.3-67.6-14.5-20.4-32-38.5-52-53.5C312.8-1,162.8,20.3,83.4,126c-71.7,95.4-62.1,229,22.4,313.2,93.5,93.5,245.1,93.4,338.6-.1,27.5-27.5,47.9-61.4,59.4-98.6,0-.1,0-.3.1-.4-13.1-9.5-28.3-15.8-44.3-18.2,0,.1,0,.2-.1.4-2.5,6-5.3,11.9-8.6,17.5h0Z" fill="none"/>
    <path d="M367.5,349.5c-17,15.1-38.2,33.9-76.8,33.9h-23c-27.9,0-53.2-10.1-71.4-28.5-17.7-17.9-27.5-42.5-27.5-69.2v-31.5c0-26.7,9.8-51.2,27.5-69.2,18.1-18.4,43.5-28.5,71.4-28.5h23c38.6,0,59.8,18.8,76.8,33.9,17.6,15.6,32.9,29.2,73.5,29.2s12.4-.5,18.5-1.5c0-.1,0-.2-.1-.4-2.4-6-5.3-11.9-8.5-17.6l-27.2-47.1c-24.9-43.2-71-69.8-120.8-69.8h-54.3c-49.8,0-95.9,26.6-120.8,69.8l-27.2,47.1c-24.9,43.2-24.9,96.3,0,139.5l27.2,47c24.9,43.2,71,69.8,120.8,69.8h54.3c49.8,0,95.9-26.6,120.8-69.8l27.2-47c3.3-5.6,6.1-11.5,8.5-17.5,0-.1,0-.2.1-.4-6.1-1-12.3-1.5-18.5-1.5-40.6,0-55.9,13.5-73.5,29.2h0Z" fill="#006bff"/>
    <path d="M290.7,185.1h-23c-42.4,0-70.3,30.3-70.3,69.1v31.5c0,38.8,27.9,69.1,70.3,69.1h23c61.8,0,57-63,150.3-63s17.7.8,26.4,2.4c2.8-16,2.8-32.4,0-48.5-8.7,1.6-17.5,2.4-26.4,2.4-93.3,0-88.5-63.1-150.3-63.1h0Z" fill="#006bff"/>
    <path d="M521,317.3c-15.9-11.6-34.2-19.5-53.6-23,0,.2,0,.3,0,.5-1.7,9.3-4.3,18.4-7.8,27.2,16,2.5,31.2,8.7,44.3,18.2,0,.1,0,.3-.1.4-7.4,24.1-18.7,47-33.3,67.6-14.5,20.4-32,38.5-52,53.5-105.6,79.4-255.6,58.2-335.1-47.4C11.5,318.8,21.1,185,105.8,100.8c93.5-93.5,245.1-93.4,338.6.1,27.5,27.5,47.9,61.4,59.4,98.6,0,.1,0,.3.1.4-13.1,9.5-28.3,15.8-44.4,18.2,3.5,8.8,6.1,17.9,7.8,27.2,0,.1,0,.3,0,.4,19.4-3.5,37.7-11.4,53.6-23,15.3-11.3,12.3-24.1,10-31.6C497.3,81.7,395.4,2.1,275,2.1S7.1,122.1,7.1,270s119.9,267.9,267.9,267.9,222.4-79.5,256-188.9c2.4-7.6,5.3-20.3-10-31.7h0Z" fill="#006bff"/>
    <path d="M459.5,218.1c-6.1,1-12.3,1.5-18.5,1.5-40.6,0-55.9-13.5-73.5-29.2-17-15.1-38.2-33.9-76.8-33.9h-23c-27.9,0-53.2,10.1-71.4,28.5-17.7,17.9-27.5,42.5-27.5,69.2v31.5c0,26.7,9.8,51.2,27.5,69.2,18.1,18.4,43.5,28.5,71.4,28.5h23c38.6,0,59.8-18.8,76.8-33.9,17.6-15.6,32.9-29.2,73.5-29.2s12.4.5,18.5,1.5c3.5-8.8,6.1-17.9,7.8-27.2,0-.1,0-.3,0-.5-8.7-1.6-17.5-2.4-26.4-2.4-93.3,0-88.5,63-150.3,63h-23c-42.4,0-70.3-30.3-70.3-69.1v-31.5c0-38.8,27.9-69.1,70.3-69.1h23c61.8,0,57,63,150.3,63s17.7-.8,26.4-2.4c0-.1,0-.3,0-.4-1.7-9.3-4.3-18.4-7.8-27.2h0Z" fill="#0ae9ef"/>
    <path d="M459.5,218.1c-6.1,1-12.3,1.5-18.5,1.5-40.6,0-55.9-13.5-73.5-29.2-17-15.1-38.2-33.9-76.8-33.9h-23c-27.9,0-53.2,10.1-71.4,28.5-17.7,17.9-27.5,42.5-27.5,69.2v31.5c0,26.7,9.8,51.2,27.5,69.2,18.1,18.4,43.5,28.5,71.4,28.5h23c38.6,0,59.8-18.8,76.8-33.9,17.6-15.6,32.9-29.2,73.5-29.2s12.4.5,18.5,1.5c3.5-8.8,6.1-17.9,7.8-27.2,0-.1,0-.3,0-.5-8.7-1.6-17.5-2.4-26.4-2.4-93.3,0-88.5,63-150.3,63h-23c-42.4,0-70.3-30.3-70.3-69.1v-31.5c0-38.8,27.9-69.1,70.3-69.1h23c61.8,0,57,63,150.3,63s17.7-.8,26.4-2.4c0-.1,0-.3,0-.4-1.7-9.3-4.3-18.4-7.8-27.2h0Z" fill="#0ae9ef"/>
  </g>
</svg>